<?xml version="1.0" encoding="UTF-8" standalone="no"?><!DOCTYPE svg PUBLIC "-//W3C//DTD SVG 1.1//EN" "http://www.w3.org/Graphics/SVG/1.1/DTD/svg11.dtd"><svg width="100%" height="100%" viewBox="0 0 13 15" version="1.1" xmlns="http://www.w3.org/2000/svg" xmlns:xlink="http://www.w3.org/1999/xlink" xml:space="preserve" style="fill-rule:evenodd;clip-rule:evenodd;stroke-linejoin:round;stroke-miterlimit:1.41421;"><g><rect x="2.165" y="5.774" width="1.994" height="1.994" style="fill:#fff;fill-rule:nonzero;"/><rect x="4.158" y="7.767" width="1.445" height="1.445" style="fill:#fff;fill-rule:nonzero;"/><rect x="5.604" y="6.854" width="0.914" height="0.914" style="fill:#fff;fill-rule:nonzero;"/><path d="M10.908,5.097l-6.102,-4.377c-0.506,-0.362 -1.099,-0.554 -1.716,-0.554c-1.628,0 -2.952,1.324 -2.952,2.951l0,2.659l1.994,0l0,-2.659c0,-0.565 0.463,-0.957 0.958,-0.957c0.188,0 0.38,0.056 0.554,0.18l6.102,4.377c0.531,0.381 0.531,1.171 0,1.553l-6.102,4.376c-0.174,0.125 -0.366,0.181 -0.554,0.181c-0.495,0 -0.958,-0.393 -0.958,-0.957l0,-2.659l-1.994,0l0,2.659c0,1.627 1.324,2.951 2.952,2.951c0.617,0 1.21,-0.192 1.716,-0.555l6.102,-4.376c0.77,-0.553 1.23,-1.449 1.23,-2.397c0,-0.948 -0.46,-1.844 -1.23,-2.396Z" style="fill:#fff;fill-rule:nonzero;"/></g></svg>